Table user_profiles {
  id integer [pk]
  user_id integer [not null]
  followed_user_id integer
  created_at timestamp
}

Table users {
  id integer [primary key]
  username varchar
  role varchar
  created_at timestamp
}

Table cars {
  id integer [pk]
  car_type varchar
  insurance_id number
}

Table insurances {
  id integer [pk]
}

Table a {
  id integer [pk]
}

Table b {
  id integer
}

Table order_items {
  order_id int [pk]
  product_id int
  quantity int [default: 1]
}

Table orders {
  id int [pk]
  user_id int [not null, unique]
  status varchar
  created_at varchar [note: 'When order created']
}

Table order_items_2 {
  order_id int
  product_id int
  quantity int [default: 1]
}

Table orders_2 {
  id int [pk]
  user_id int [not null, unique]
  status varchar
  created_at varchar [note: 'When order created']
}

Table mulitple_eps_1 {
  id int [pk, ref: - mulitple_eps_2.id]
  test_id int [ref: - mulitple_eps_2.id]
  test_id_2 int [ref: > mulitple_eps_2.id]
  test_id_3 int [ref: < mulitple_eps_2.id]
  test_id_4 int [not null, ref: > mulitple_eps_2.id]
  test_id_5 int [not null, ref: < mulitple_eps_2.id]
}

Table mulitple_eps_2 {
  id int [pk]
}

Table merchants {
  id int
  country_code int
  merchant_name varchar
  "created at" varchar
  Indexes {
    (id, country_code) [pk]
  }
}

Table merchant_periods {
  id int [pk, not null]
  merchant_id int
  country_code int
  start_date datetime
  end_date datetime
}

Table merchants_2 {
  id int
  country_code int
  merchant_name varchar
  "created at" varchar
  Indexes {
    (id, country_code) [pk]
  }
}

Table merchant_periods_2 {
  id int [pk, not null]
  merchant_id int [pk]
  country_code int [not null]
  start_date datetime
  end_date datetime
}

Table merchants_3 {
  id int
  country_code int
  merchant_name varchar
  "created at" varchar
  Indexes {
    (id, country_code) [pk]
  }
}

Table merchant_periods_3 {
  id int [pk, not null]
  merchant_id int [not null]
  country_code int [pk]
  start_date datetime
  end_date datetime
}

Table merchants_4 {
  id int
  country_code int
  merchant_name varchar
  "created at" varchar
  Indexes {
    (id, country_code) [pk]
  }
}

Table merchant_periods_4 {
  id int [pk, not null]
  merchant_id int
  country_code int
  start_date datetime
  end_date datetime
}

Table merchants_5 {
  id int
  country_code int
  merchant_name varchar
  "created at" varchar
  Indexes {
    (id, country_code) [pk]
  }
}

Table merchant_periods_5 {
  id int [pk, not null]
  merchant_id int
  country_code int
  start_date datetime
  end_date datetime
}

Table merchants_6 {
  id int
  country_code int
  merchant_name varchar
  "created at" varchar
  Indexes {
    (id, country_code) [pk]
  }
}

Table merchant_periods_6 {
  id int [pk, not null]
  merchant_id int [pk]
  country_code int [pk]
  start_date datetime
  end_date datetime
}

Ref: merchant_periods.(merchant_id, country_code) > merchants.(id, country_code)
Ref: merchant_periods_2.(merchant_id, country_code) > merchants_2.(id, country_code)
Ref: merchants_3.(id, country_code) < merchant_periods_3.(merchant_id, country_code)
Ref: merchants_4.(id, country_code) < merchant_periods_4.(merchant_id, country_code)
Ref: merchants_5.(id, country_code) - merchant_periods_5.(merchant_id, country_code)
Ref: merchants_6.(id, country_code) - merchant_periods_6.(merchant_id, country_code)

Ref: "order_items"."order_id" > "orders"."id"

Ref: "order_items_2"."order_id" > "orders_2"."id"

Ref: "users"."id" - "user_profiles"."user_id"

Ref:  "insurances"."id" - "cars"."insurance_id"

Ref: "b"."id" - "a"."id"
Note note_1745213388339 {
'Huy Dep Trai'
}
